<svg id="ad467010-4b2c-4db1-84f0-cd2022f75deb" data-name="Layer 1" xmlns="http://www.w3.org/2000/svg" width="1072.34" height="780.14" viewBox="0 0 1072.34 780.14"><title>QA engineers</title><path d="M1118,683.26c-26.56,54.81-80.52,91.46-136.42,115.63a503.33,503.33,0,0,1-140.45,37.48q-13.9,1.65-27.89,2.56a540.92,540.92,0,0,1-71.57-.08q-21.5-1.43-42.85-4.57a540.44,540.44,0,0,1-143.27-41.72q-19.74-8.89-38.68-19.41a494.85,494.85,0,0,1-60.46-39.54q-6.36-4.86-12.56-9.93l-1.7-1.39c-3.25-2.68-6.47-5.42-9.74-8.08a141.6,141.6,0,0,0-17.26-12.38c-.41-.24-.82-.48-1.24-.71-1.12-.65-2.26-1.26-3.42-1.84a78.31,78.31,0,0,0-7.34-3.24c-11.55-4.4-23.92-6-36.46-5.73-2.08,0-4.16.14-6.25.28h0c-2.92.2-5.85.5-8.77.88l-1.08.15a198.77,198.77,0,0,0-27.53,5.91c-13.94,4-27.63,9-41.41,13.51h0c-5.85,1.93-11.71,3.77-17.62,5.42l-1.3.36a192.87,192.87,0,0,1-25.61,5.36,142.7,142.7,0,0,1-58.61-4.72l-.66-.19-1.22-.36-1.67-.52q-4.2-1.32-8.33-2.89l-1.67-.64q-4-1.54-7.83-3.31l-1.67-.76q-4-1.86-7.83-3.93c-.92-.48-1.83-1-2.73-1.49q-4.08-2.28-8-4.78-4.16-2.65-8.14-5.53-1.84-1.32-3.64-2.71a161.36,161.36,0,0,1-19.37-17.47c-.33-.33-.64-.67-.95-1-1.59-1.72-3.15-3.47-4.66-5.26-.56-.66-1.12-1.32-1.67-2q-2.69-3.28-5.19-6.71c-.25-.33-.49-.67-.73-1a144.59,144.59,0,0,1-16.87-30.5c-.14-.33-.27-.67-.39-1q-2-5.15-3.65-10.47c-.45-1.48-.88-3-1.26-4.48-.13-.44-.25-.89-.36-1.33-5.52-21.73-6.15-44.32-6.15-66.78q0-3.93,0-7.85c.16-36.33.72-73.28,6.08-109.11,0-.25.07-.5.11-.74a340.76,340.76,0,0,1,7.31-35.82,264.25,264.25,0,0,1,12.31-36.3c12.33-29,30.26-55.39,50.17-79.85,24-29.43,51.5-56.59,82.13-79q6.6-4.83,13.38-9.38l2.09-1.37c.73-.49,1.46-1,2.19-1.43h0c1.5-1,3-1.94,4.52-2.89l1.7-1.06,3.24-2,1-.57,1.73-1,1.71-1q3-1.77,6.07-3.46,13.11-7.31,26.84-13.36,4.05-1.79,8.15-3.45a287.43,287.43,0,0,1,38.15-12.51q7.2-1.82,14.49-3.2,8.6-1.66,17.29-2.75a274.38,274.38,0,0,1,27.78-2.07c65.32-1.59,131.3,19.67,182.49,60.42,20.4,16.24,38.73,35.47,61.64,47.92,20,10.84,43.41,15.33,64.83,6.8,17.7-7.05,29.22-10.55,49.1-9.48A411.56,411.56,0,0,1,870.68,263c1.56.57,3.12,1.16,4.67,1.75,100.71,38.55,187.3,115.1,232.28,213.47q1.78,3.9,3.47,7.86C1137.93,548.73,1147.61,622.18,1118,683.26Z" transform="translate(-63.83 -59.93)" fill="#29166f" opacity="0.1"/><path d="M264,337.32V716.48l-1.3.36a192.87,192.87,0,0,1-25.61,5.36,142.7,142.7,0,0,1-58.61-4.72l-.66-.19-1.22-.36-1.67-.52q-4.2-1.32-8.33-2.89l-1.67-.64q-4-1.54-7.83-3.31l-1.67-.76q-4-1.86-7.83-3.93c-.92-.48-1.83-1-2.73-1.49q-4.08-2.28-8-4.78-4.16-2.65-8.14-5.53-1.84-1.32-3.64-2.71a161.36,161.36,0,0,1-19.37-17.47c-.33-.33-.64-.67-.95-1-1.59-1.72-3.15-3.47-4.66-5.26-.56-.66-1.12-1.32-1.67-2q-2.69-3.28-5.19-6.71c-.25-.33-.49-.67-.73-1a144.59,144.59,0,0,1-16.87-30.5c-.14-.33-.27-.67-.39-1q-2-5.15-3.65-10.47c-.45-1.48-.88-3-1.26-4.48-.13-.44-.25-.89-.36-1.33-5.52-21.73-6.15-44.32-6.15-66.78q0-3.93,0-7.85c.16-36.33.72-73.28,6.08-109.11,0-.25.07-.5.11-.74a340.76,340.76,0,0,1,7.31-35.82H179.46V337.32h20.36V295.93h43.82v41.39Z" transform="translate(-63.83 -59.93)" fill="#29166f" opacity="0.1"/><path d="M1118,683.26c-26.56,54.81-80.52,91.46-136.42,115.63a503.33,503.33,0,0,1-140.45,37.48q-13.9,1.65-27.89,2.56a540.92,540.92,0,0,1-71.57-.08q-21.5-1.43-42.85-4.57a540.44,540.44,0,0,1-143.27-41.72q-19.74-8.89-38.68-19.41a494.85,494.85,0,0,1-60.46-39.54q-6.36-4.86-12.56-9.93l-1.7-1.39c-3.25-2.68-6.47-5.42-9.74-8.08a141.6,141.6,0,0,0-17.26-12.38c-.41-.24-.82-.48-1.24-.71-1.12-.65-2.26-1.26-3.42-1.84a78.31,78.31,0,0,0-7.34-3.24V540.93H588.74v34.53h81.45V322.88h95.87v101h47.42v-59.8h39.18V300.2h18V263c1.56.57,3.12,1.16,4.67,1.75V300.2h17.52v63.92H932v59.8h57.73V651.75h91.76V486.06h29.57C1137.93,548.73,1147.61,622.18,1118,683.26Z" transform="translate(-63.83 -59.93)" fill="#29166f" opacity="0.1"/><rect x="635.01" y="300.96" width="42.85" height="42.85" fill="#29166f" opacity="0.1"/><rect x="635.01" y="389.78" width="42.85" height="42.85" fill="#29166f" opacity="0.1"/><rect x="635.01" y="478.61" width="42.85" height="42.85" fill="#29166f" opacity="0.1"/><rect x="635.01" y="567.44" width="42.85" height="42.85" fill="#29166f" opacity="0.1"/><rect x="635.01" y="656.26" width="42.85" height="42.85" fill="#29166f" opacity="0.1"/><path d="M741.69,805v33.84q-21.5-1.43-42.85-4.57V805Z" transform="translate(-63.83 -59.93)" fill="#29166f" opacity="0.1"/><rect x="353.45" y="536.38" width="149.99" height="19.41" fill="#29166f" opacity="0.1"/><rect x="353.45" y="595.33" width="149.99" height="19.41" fill="#29166f" opacity="0.1"/><path d="M567.27,714.21v19.4H456.43q-6.36-4.86-12.56-9.93l-1.7-1.39c-3.25-2.68-6.47-5.42-9.74-8.08Z" transform="translate(-63.83 -59.93)" fill="#29166f" opacity="0.1"/><path d="M567.27,773.15v19.41h-11.7q-19.74-8.89-38.68-19.41Z" transform="translate(-63.83 -59.93)" fill="#29166f" opacity="0.1"/><rect x="749.43" y="416.99" width="27.89" height="27.89" fill="#29166f" opacity="0.1"/><rect x="145.43" y="287.01" width="27.89" height="27.89" fill="#29166f" opacity="0.1"/><rect x="145.43" y="351.81" width="27.89" height="27.89" fill="#29166f" opacity="0.1"/><rect x="145.43" y="416.6" width="27.89" height="27.89" fill="#29166f" opacity="0.1"/><rect x="145.43" y="481.4" width="27.89" height="27.89" fill="#29166f" opacity="0.1"/><rect x="145.43" y="546.2" width="27.89" height="27.89" fill="#29166f" opacity="0.1"/><rect x="145.43" y="610.99" width="27.89" height="27.89" fill="#29166f" opacity="0.1"/><rect x="855.92" y="416.99" width="27.89" height="27.89" fill="#29166f" opacity="0.1"/><rect x="749.43" y="485.79" width="27.89" height="27.89" fill="#29166f" opacity="0.1"/><rect x="855.92" y="485.79" width="27.89" height="27.89" fill="#29166f" opacity="0.1"/><rect x="749.43" y="554.6" width="27.89" height="27.89" fill="#29166f" opacity="0.1"/><rect x="855.92" y="554.6" width="27.89" height="27.89" fill="#29166f" opacity="0.1"/><rect x="749.43" y="623.41" width="27.89" height="27.89" fill="#29166f" opacity="0.1"/><rect x="855.92" y="623.41" width="27.89" height="27.89" fill="#29166f" opacity="0.1"/><rect x="749.43" y="692.21" width="27.89" height="27.89" fill="#29166f" opacity="0.1"/><rect x="855.92" y="692.21" width="27.89" height="27.89" fill="#29166f" opacity="0.1"/><polygon points="749.43 779 749.43 761.01 777.32 761.01 777.32 776.44 749.43 779" fill="#29166f" opacity="0.1"/><path d="M69.93,424.68v16H176.6v-16Zm9.5,15H71.6v-14h7.83Zm9.5,0H81.1v-14h7.83Zm9.5,0H90.6v-14h7.83Zm9.5,0H100.1v-14h7.83Zm9.5,0H109.6v-14h7.83Zm9.5,0H119.1v-14h7.83Zm9.5,0H128.6v-14h7.83Zm9.5,0H138.1v-14h7.83Zm9.5,0H147.6v-14h7.83Zm9.5,0H157.1v-14h7.83Zm10,0H166.6v-14h8.33Z" transform="translate(-63.83 -59.93)" fill="#29166f" opacity="0.1"/><path d="M69.93,471.14v15.95H176.6V471.14Zm9.5,14.95H71.6V472.14h7.83Zm9.5,0H81.1V472.14h7.83Zm9.5,0H90.6V472.14h7.83Zm9.5,0H100.1V472.14h7.83Zm9.5,0H109.6V472.14h7.83Zm9.5,0H119.1V472.14h7.83Zm9.5,0H128.6V472.14h7.83Zm9.5,0H138.1V472.14h7.83Zm9.5,0H147.6V472.14h7.83Zm9.5,0H157.1V472.14h7.83Zm10,0H166.6V472.14h8.33Z" transform="translate(-63.83 -59.93)" fill="#29166f" opacity="0.1"/><path d="M69.93,517.59v15.95H176.6V517.59Zm9.5,14.95H71.6V518.59h7.83Zm9.5,0H81.1V518.59h7.83Zm9.5,0H90.6V518.59h7.83Zm9.5,0H100.1V518.59h7.83Zm9.5,0H109.6V518.59h7.83Zm9.5,0H119.1V518.59h7.83Zm9.5,0H128.6V518.59h7.83Zm9.5,0H138.1V518.59h7.83Zm9.5,0H147.6V518.59h7.83Zm9.5,0H157.1V518.59h7.83Zm10,0H166.6V518.59h8.33Z" transform="translate(-63.83 -59.93)" fill="#29166f" opacity="0.1"/><path d="M69.93,564v16H176.6V564Zm9.5,15H71.6V565h7.83Zm9.5,0H81.1V565h7.83Zm9.5,0H90.6V565h7.83Zm9.5,0H100.1V565h7.83Zm9.5,0H109.6V565h7.83Zm9.5,0H119.1V565h7.83Zm9.5,0H128.6V565h7.83Zm9.5,0H138.1V565h7.83Zm9.5,0H147.6V565h7.83Zm9.5,0H157.1V565h7.83Zm10,0H166.6V565h8.33Z" transform="translate(-63.83 -59.93)" fill="#29166f" opacity="0.1"/><path d="M70.34,610.49c.38,1.5.81,3,1.26,4.48v-3.48h7.83v14H75.25c.12.33.25.67.39,1h101v-16Zm18.59,15H81.1v-14h7.83Zm9.5,0H90.6v-14h7.83Zm9.5,0H100.1v-14h7.83Zm9.5,0H109.6v-14h7.83Zm9.5,0H119.1v-14h7.83Zm9.5,0H128.6v-14h7.83Zm9.5,0H138.1v-14h7.83Zm9.5,0H147.6v-14h7.83Zm9.5,0H157.1v-14h7.83Zm10,0H166.6v-14h8.33Z" transform="translate(-63.83 -59.93)" fill="#29166f" opacity="0.1"/><path d="M92.51,656.94c.24.33.48.67.73,1h5.19v6.71c.55.67,1.11,1.33,1.67,2v-8.7h7.83v14h-3.17c.31.33.62.67.95,1H176.6v-16Zm24.92,15H109.6v-14h7.83Zm9.5,0H119.1v-14h7.83Zm9.5,0H128.6v-14h7.83Zm9.5,0H138.1v-14h7.83Zm9.5,0H147.6v-14h7.83Zm9.5,0H157.1v-14h7.83Zm10,0H166.6v-14h8.33Z" transform="translate(-63.83 -59.93)" fill="#29166f" opacity="0.1"/><path d="M144.87,703.39c.9.51,1.81,1,2.73,1.49v-.49h7.83v4.42l1.67.76v-5.18h7.83v8.49l1.67.64v-9.13h8.33v12l1.67.52V703.39Z" transform="translate(-63.83 -59.93)" fill="#29166f" opacity="0.1"/><path d="M473.79,286.17s-23.84-1.44-21,15.26a4.08,4.08,0,0,0,2.12,4.3s0-1.24,2.44-.82a11.15,11.15,0,0,0,2.59.12,5.39,5.39,0,0,0,3.17-1.3h0s6.7-2.77,9.31-13.72c0,0,1.92-2.39,1.85-3l-4,1.72s1.38,2.9.3,5.31c0,0-.13-5.2-.91-5.08-.15,0-2.09,1-2.09,1s2.37,5.06.58,8.73c0,0,.68-6.22-1.31-8.36L463.94,292s2.77,5.22.89,9.48c0,0,.49-6.53-1.48-9.07l-2.57,2s2.6,5.14,1,8.68c0,0-.21-7.61-1.57-8.19a15.42,15.42,0,0,0-2.59,2.8s1.78,3.73.68,5.7c0,0-.68-5.06-1.24-5.09,0,0-2.23,3.36-2.46,5.66a12.18,12.18,0,0,1,1.92-6,6.72,6.72,0,0,0-3.42,1.77s.35-2.37,4-2.58c0,0,1.85-2.54,2.35-2.7,0,0-3.61-.3-5.8.67,0,0,1.93-2.24,6.46-1.22l2.53-2.07s-4.75-.65-6.76.07c0,0,2.31-2,7.44-.54l2.76-1.65a25.18,25.18,0,0,0-6.46-.56s2.54-1.37,7.27.12l2-.89s-3-.58-3.83-.67-.92-.33-.92-.33a10.28,10.28,0,0,1,5.57.62S473.86,286.43,473.79,286.17Z" transform="translate(-63.83 -59.93)" fill="#29166f" opacity="0.1"/><path d="M411.21,367.44s-8.15,22.44,8.67,24.49a4.07,4.07,0,0,0,4.71-.81s-1.17-.39-.09-2.58a11.39,11.39,0,0,0,.86-2.44,5.41,5.41,0,0,0-.36-3.41h0s-.75-7.21-10.51-12.82c0,0-1.74-2.53-2.35-2.63l.5,4.35s3.17-.5,5.18,1.22c0,0-5-1.35-5.13-.57,0,.15.37,2.29.37,2.29s5.52-.84,8.53,1.92c0,0-5.78-2.42-8.39-1.11l.78,3.18s5.79-1.16,9.34,1.84c0,0-6.12-2.31-9.12-1.15l1.19,3s5.67-1,8.61,1.49c0,0-7.36-2-8.29-.82a15.74,15.74,0,0,0,1.94,3.27s4.09-.64,5.66,1c0,0-5.05-.79-5.23-.27,0,0,2.59,3.1,4.73,4a12.24,12.24,0,0,1-5.19-3.55,6.72,6.72,0,0,0,.73,3.79s-2.18-1-1.35-4.55c0,0-1.92-2.49-1.92-3,0,0-1.32,3.37-1,5.75,0,0-1.6-2.49.66-6.54l-1.26-3s-2,4.37-1.86,6.51c0,0-1.24-2.79,1.6-7.3l-.79-3.11a24.93,24.93,0,0,0-2.37,6s-.6-2.83,2.17-6.94l-.29-2.14s-1.4,2.68-1.73,3.49-.58.78-.58.78a10.28,10.28,0,0,1,2.17-5.17S411.48,367.44,411.21,367.44Z" transform="translate(-63.83 -59.93)" fill="#29166f" opacity="0.1"/><path d="M569.24,348.52S561.1,371,577.91,373a4.08,4.08,0,0,0,4.72-.82s-1.18-.39-.09-2.57a10.7,10.7,0,0,0,.85-2.45,5.41,5.41,0,0,0-.35-3.41h0s-.75-7.21-10.51-12.82c0,0-1.75-2.52-2.36-2.62l.51,4.34s3.17-.49,5.18,1.23c0,0-5-1.35-5.14-.58,0,.16.37,2.29.37,2.29s5.52-.83,8.54,1.92c0,0-5.78-2.41-8.4-1.11l.79,3.19s5.79-1.17,9.34,1.84c0,0-6.13-2.32-9.13-1.16l1.19,3s5.67-1,8.61,1.49c0,0-7.35-2-8.29-.81a15.43,15.43,0,0,0,2,3.27s4.08-.65,5.66,1c0,0-5.05-.79-5.23-.26,0,0,2.58,3.09,4.72,4a12.13,12.13,0,0,1-5.18-3.55,6.77,6.77,0,0,0,.72,3.79s-2.17-1-1.34-4.54c0,0-1.92-2.5-1.93-3,0,0-1.31,3.38-1,5.75,0,0-1.6-2.48.66-6.54l-1.26-3s-2,4.37-1.86,6.5c0,0-1.24-2.78,1.6-7.29l-.8-3.12a24.93,24.93,0,0,0-2.37,6s-.59-2.83,2.18-6.94l-.29-2.14s-1.4,2.68-1.74,3.49-.58.78-.58.78a10.35,10.35,0,0,1,2.18-5.17S569.52,348.53,569.24,348.52Z" transform="translate(-63.83 -59.93)" fill="#29166f" opacity="0.1"/><path d="M343.34,532s-8.15,22.45,8.67,24.5a4.06,4.06,0,0,0,4.71-.82s-1.17-.39-.09-2.57a10.77,10.77,0,0,0,.86-2.45,5.34,5.34,0,0,0-.36-3.41h0s-.75-7.21-10.51-12.81c0,0-1.74-2.53-2.35-2.63l.5,4.34s3.18-.49,5.18,1.23c0,0-5-1.35-5.13-.58,0,.16.37,2.29.37,2.29s5.52-.83,8.53,1.92c0,0-5.78-2.41-8.39-1.11l.78,3.19s5.79-1.17,9.34,1.84c0,0-6.12-2.32-9.12-1.16l1.19,3s5.67-1,8.61,1.49c0,0-7.35-2-8.29-.81a15.74,15.74,0,0,0,1.94,3.27s4.09-.65,5.67,1c0,0-5.06-.79-5.24-.26,0,0,2.59,3.09,4.73,4a12.17,12.17,0,0,1-5.19-3.54,6.69,6.69,0,0,0,.73,3.78s-2.18-1-1.35-4.54c0,0-1.91-2.5-1.92-3,0,0-1.32,3.38-1,5.75,0,0-1.6-2.48.66-6.54l-1.26-3s-2,4.37-1.85,6.5c0,0-1.24-2.78,1.6-7.29l-.8-3.11a24.74,24.74,0,0,0-2.37,6s-.6-2.84,2.17-6.94l-.29-2.15s-1.4,2.68-1.73,3.49-.58.78-.58.78a10.24,10.24,0,0,1,2.18-5.17S343.61,532,343.34,532Z" transform="translate(-63.83 -59.93)" fill="#29166f" opacity="0.1"/><path d="M311,320.41s-8.14,22.44,8.67,24.49a4.09,4.09,0,0,0,4.72-.81s-1.18-.39-.09-2.58a11.21,11.21,0,0,0,.85-2.45,5.38,5.38,0,0,0-.35-3.4h0s-.75-7.21-10.52-12.82c0,0-1.74-2.53-2.35-2.63l.51,4.35s3.17-.5,5.17,1.22c0,0-5-1.35-5.13-.57,0,.15.37,2.29.37,2.29s5.52-.84,8.54,1.92c0,0-5.78-2.42-8.4-1.11l.78,3.18s5.79-1.17,9.35,1.84c0,0-6.13-2.32-9.13-1.15l1.19,3s5.67-1,8.61,1.5c0,0-7.35-2-8.29-.82a15.74,15.74,0,0,0,1.94,3.27s4.09-.64,5.67,1c0,0-5.05-.79-5.23-.27,0,0,2.58,3.1,4.72,4a12.3,12.3,0,0,1-5.19-3.55,6.72,6.72,0,0,0,.73,3.79s-2.18-1-1.34-4.55c0,0-1.92-2.49-1.93-3,0,0-1.31,3.37-1,5.75,0,0-1.61-2.49.66-6.54l-1.27-3s-2,4.37-1.85,6.51c0,0-1.24-2.79,1.6-7.3l-.8-3.11a24.93,24.93,0,0,0-2.37,6s-.59-2.83,2.17-6.94l-.28-2.14s-1.41,2.68-1.74,3.48-.58.79-.58.79a10.24,10.24,0,0,1,2.18-5.17S311.28,320.41,311,320.41Z" transform="translate(-63.83 -59.93)" fill="#29166f" opacity="0.1"/><path d="M371.44,442.61s6.29,23,21.21,15a4.07,4.07,0,0,0,3.38-3.38s-1.18.36-1.55-2.05a11,11,0,0,0-.72-2.49,5.29,5.29,0,0,0-2.25-2.58h0s-4.77-5.46-16-4.42c0,0-2.88-1.05-3.44-.78l2.92,3.25s2.31-2.23,4.94-2c0,0-4.89,1.8-4.53,2.49.08.14,1.62,1.66,1.62,1.66s4-3.87,8.08-3.36c0,0-6.11,1.36-7.49,3.94l2.47,2.15s4.06-4.29,8.7-3.89c0,0-6.35,1.64-8.13,4.32l2.72,1.79s4-4.11,7.9-3.74c0,0-7.14,2.63-7.25,4.11a15.59,15.59,0,0,0,3.48,1.55s3-2.88,5.19-2.47c0,0-4.59,2.27-4.43,2.8,0,0,3.9,1,6.15.52a12.2,12.2,0,0,1-6.28.1,6.66,6.66,0,0,0,2.78,2.67s-2.36.43-3.72-2.94c0,0-3-.93-3.32-1.35,0,0,.88,3.52,2.5,5.28,0,0-2.74-1.11-3.23-5.73l-2.77-1.73s.91,4.71,2.23,6.38c0,0-2.62-1.56-2.9-6.88l-2.44-2.08a25,25,0,0,0,1.54,6.3s-2.11-2-2.22-6.92l-1.47-1.59s.4,3,.59,3.85,0,1,0,1a10.27,10.27,0,0,1-1.2-5.48S371.67,442.46,371.44,442.61Z" transform="translate(-63.83 -59.93)" fill="#29166f" opacity="0.1"/><path d="M542.08,463.15s6.29,23,21.2,15a4.06,4.06,0,0,0,3.39-3.38s-1.19.36-1.56-2a10.51,10.51,0,0,0-.71-2.49,5.36,5.36,0,0,0-2.26-2.58h0s-4.77-5.46-16-4.41c0,0-2.88-1.06-3.43-.79l2.91,3.25s2.31-2.23,4.94-2c0,0-4.89,1.8-4.52,2.49.07.14,1.62,1.66,1.62,1.66s4-3.87,8.08-3.36c0,0-6.12,1.36-7.5,3.94l2.48,2.15s4-4.29,8.69-3.89c0,0-6.34,1.64-8.12,4.32l2.72,1.79s4-4.11,7.89-3.74c0,0-7.14,2.63-7.24,4.11a15.47,15.47,0,0,0,3.47,1.55s3-2.88,5.19-2.47c0,0-4.58,2.27-4.43,2.8,0,0,3.9,1,6.16.52a12.25,12.25,0,0,1-6.29.1,6.73,6.73,0,0,0,2.78,2.67s-2.36.43-3.72-2.94c0,0-3-.93-3.31-1.35,0,0,.87,3.52,2.49,5.28,0,0-2.74-1.11-3.23-5.73L551,471.9s.91,4.71,2.24,6.38c0,0-2.62-1.56-2.9-6.88l-2.45-2.08a24.69,24.69,0,0,0,1.55,6.3s-2.12-2-2.23-6.92l-1.47-1.59s.4,3,.59,3.85,0,1,0,1a10.27,10.27,0,0,1-1.2-5.48S542.31,463,542.08,463.15Z" transform="translate(-63.83 -59.93)" fill="#29166f" opacity="0.1"/>
<path d="M757.17,114.6s44.57-86.5,97.25-41.89c0,0,11.5,4.19,10.63,16.35,0,0-4.43-2.43-7.95,6.86a44.88,44.88,0,0,1-5,9.33A22,22,0,0,1,841,113.63h0s-23.64,17.71-67.43,4.05c0,0-12.38,1.78-14.38.24l14.39-10.52s7.31,10.85,18,12.09c0,0-18-11.3-15.94-13.75.42-.5,7.88-5.23,7.88-5.23s12.79,18.81,29.37,20.2c0,0-23.23-10.59-26.56-22L798,92.2s12.54,20.55,31.37,22.85c0,0-23.9-11.91-28.72-24.1L813,86.13s12.63,19.8,28.3,21.61c0,0-26.22-16.55-25.4-22.53,0,0,11.61-3.74,15.17-3.25,0,0,9.39,14,18.59,14.25,0,0-16.35-12.92-15.27-14.91,0,0,16.42-.85,25,3.12,0,0-12.2-6.79-25-5.69,0,0,5.79-6.81,13.34-8.31,0,0-9.05-3.72-17.32,8.56,0,0-12.77,1.17-14.35,2.59,0,0,6.46-13.28,14.41-18.93,0,0-11.85,2.09-17.72,20.09L800.23,87.3s7.61-18,14.32-23.56c0,0-11.76,4-17.38,25L785.65,95s5.37-16,11.5-23.81c0,0-10.11,6.06-14.74,25.72l-7.2,5.07s4.13-11.62,5.62-14.85.74-3.9.74-3.9A41.87,41.87,0,0,0,772.14,104S758,115.4,757.17,114.6Z" transform="translate(-63.83 -59.93)" fill="#29166f" opacity="0.1"/><path d="M941.5,160.86s20.14-39.09,43.94-18.93c0,0,5.2,1.89,4.8,7.38,0,0-2-1.09-3.59,3.11a20,20,0,0,1-2.24,4.21,10,10,0,0,1-5,3.79h0s-10.69,8-30.48,1.83c0,0-5.59.8-6.49.11l6.5-4.76s3.3,4.91,8.14,5.46c0,0-8.12-5.1-7.2-6.21.18-.22,3.55-2.36,3.55-2.36s5.78,8.5,13.28,9.13c0,0-10.5-4.79-12-10l5.28-2.93s5.66,9.29,14.17,10.33c0,0-10.8-5.38-13-10.89l5.58-2.18s5.7,8.95,12.78,9.77c0,0-11.85-7.48-11.47-10.18,0,0,5.24-1.69,6.85-1.47,0,0,4.24,6.33,8.4,6.43,0,0-7.39-5.83-6.9-6.73,0,0,7.42-.38,11.28,1.41,0,0-5.51-3.07-11.28-2.57a12.39,12.39,0,0,1,6-3.76s-4.09-1.68-7.83,3.87c0,0-5.77.53-6.48,1.17,0,0,2.92-6,6.51-8.55,0,0-5.36.94-8,9.08L961,148.52s3.43-8.13,6.47-10.65c0,0-5.32,1.81-7.86,11.29l-5.2,2.82s2.42-7.24,5.19-10.76c0,0-4.57,2.74-6.65,11.62l-3.26,2.29s1.87-5.25,2.54-6.71.33-1.76.33-1.76a19,19,0,0,0-4.26,9.41S941.85,161.22,941.5,160.86Z" transform="translate(-63.83 -59.93)" fill="#29166f" opacity="0.1"/><path d="M723.27,206.34s20.14-39.09,44-18.93c0,0,5.19,1.89,4.8,7.39,0,0-2-1.1-3.59,3.1a20.42,20.42,0,0,1-2.24,4.21,10,10,0,0,1-5.05,3.79h0s-10.68,8-30.47,1.83c0,0-5.59.81-6.49.11l6.5-4.76s3.3,4.91,8.13,5.47c0,0-8.12-5.11-7.2-6.22.19-.22,3.56-2.36,3.56-2.36s5.78,8.5,13.27,9.13c0,0-10.49-4.79-12-10l5.28-2.92s5.67,9.28,14.18,10.32c0,0-10.8-5.38-13-10.89l5.58-2.18s5.71,8.95,12.79,9.77c0,0-11.85-7.48-11.48-10.18,0,0,5.25-1.69,6.86-1.47,0,0,4.24,6.33,8.4,6.44,0,0-7.39-5.84-6.9-6.74,0,0,7.41-.38,11.28,1.41,0,0-5.52-3.07-11.29-2.57a12.39,12.39,0,0,1,6-3.76s-4.08-1.68-7.82,3.87c0,0-5.77.53-6.48,1.17,0,0,2.91-6,6.51-8.55,0,0-5.36.94-8,9.08L742.73,194s3.44-8.13,6.47-10.64c0,0-5.31,1.8-7.85,11.28l-5.21,2.82s2.43-7.24,5.2-10.76c0,0-4.57,2.74-6.66,11.62l-3.26,2.29s1.87-5.25,2.54-6.71.34-1.76.34-1.76a18.9,18.9,0,0,0-4.26,9.41S723.62,206.7,723.27,206.34Z" transform="translate(-63.83 -59.93)" fill="#29166f" opacity="0.1"/></svg>