<?xml version="1.0" standalone="no"?>
<!DOCTYPE svg PUBLIC "-//W3C//DTD SVG 20010904//EN"
 "http://www.w3.org/TR/2001/REC-SVG-20010904/DTD/svg10.dtd">
<svg version="1.0" xmlns="http://www.w3.org/2000/svg"
 width="64.000000pt" height="64.000000pt" viewBox="0 0 64.000000 64.000000"
 preserveAspectRatio="xMidYMid meet">

<g transform="translate(0.000000,64.000000) scale(0.100000,-0.100000)"
fill="#000000" stroke="none">
<path d="M77 542 c-31 -32 -57 -64 -57 -72 0 -8 32 -47 72 -87 l72 -73 -57
-58 c-57 -58 -58 -60 -66 -133 -5 -41 -6 -77 -2 -80 3 -4 39 -3 80 2 73 8 75
9 133 66 l58 57 73 -72 c40 -40 79 -72 87 -72 20 0 130 110 130 130 0 9 -31
47 -70 85 -71 70 -81 85 -57 85 7 0 31 18 52 40 21 22 35 40 31 40 -4 0 4 14
18 31 37 44 33 68 -22 122 -55 54 -78 58 -121 21 -17 -14 -31 -22 -31 -18 0 4
-18 -10 -40 -31 -22 -21 -40 -45 -40 -52 0 -24 -15 -14 -85 57 -38 39 -76 70
-85 70 -9 0 -41 -26 -73 -58z m75 26 c-7 -7 -12 -19 -12 -27 0 -12 3 -12 12
-3 16 16 38 15 38 -2 0 -7 -7 -19 -15 -26 -9 -7 -13 -15 -10 -18 3 -3 14 3 25
13 16 14 23 16 32 7 9 -9 9 -15 0 -24 -17 -17 -15 -33 3 -18 8 7 22 9 31 6 15
-6 14 -9 -6 -31 -30 -32 -21 -42 13 -14 46 36 29 6 -28 -51 l-55 -55 -72 73
-73 72 55 55 c30 30 59 55 64 55 6 0 5 -5 -2 -12z m386 -31 c47 -48 51 -66 22
-92 -21 -19 -22 -18 -77 38 -56 55 -57 56 -38 77 27 30 46 25 93 -23z m-71
-69 c63 -63 77 -88 47 -88 -9 0 -18 -9 -21 -21 -5 -18 -15 -12 -79 52 -66 65
-72 74 -54 81 11 4 20 14 20 23 0 28 24 15 87 -47z m-67 -73 l55 -55 -130
-130 c-118 -118 -131 -128 -139 -110 -8 18 3 34 78 109 49 49 84 91 79 94 -5
3 -47 -32 -94 -79 -79 -80 -109 -99 -109 -72 0 7 32 45 72 85 40 40 69 76 65
80 -4 4 -41 -26 -81 -66 -61 -61 -77 -72 -96 -66 -21 7 -11 19 106 136 71 71
131 129 134 129 3 0 30 -25 60 -55z m30 -120 c-16 -20 -5 -32 14 -16 27 23 39
1 15 -25 -29 -31 -16 -44 15 -15 26 24 48 12 25 -15 -16 -19 -4 -31 15 -15 27
23 39 1 15 -25 -29 -31 -16 -44 15 -15 17 16 26 19 31 11 5 -8 -14 -34 -49
-69 l-56 -56 -72 72 -73 73 55 55 c52 52 77 73 50 40z m-324 -113 c6 -4 13
-15 17 -24 3 -10 13 -18 21 -18 16 0 31 -34 21 -50 -10 -16 -67 -12 -87 7 -17
16 -25 73 -11 86 8 9 25 9 39 -1z" fill="#DA251C"/>
<path d="M395 479 c-4 -6 -5 -13 -2 -16 7 -7 27 6 27 18 0 12 -17 12 -25 -2z" fill="#DA251C"/>
<path d="M431 446 c-7 -8 -8 -17 -3 -20 6 -3 15 1 21 8 7 8 8 17 3 20 -6 3
-15 -1 -21 -8z" fill="#DA251C"/>
<path d="M465 409 c-4 -6 -5 -13 -2 -16 7 -7 27 6 27 18 0 12 -17 12 -25 -2z" fill="#DA251C"/>
<path d="M306 361 c-11 -12 -16 -24 -12 -28 9 -9 39 22 34 37 -2 7 -10 4 -22
-9z" fill="#DA251C"/>
</g>
</svg>
