<?xml version="1.0" standalone="no"?>
<!DOCTYPE svg PUBLIC "-//W3C//DTD SVG 20010904//EN"
 "http://www.w3.org/TR/2001/REC-SVG-20010904/DTD/svg10.dtd">
<svg version="1.0" xmlns="http://www.w3.org/2000/svg"
 width="64.000000pt" height="64.000000pt" viewBox="0 0 64.000000 64.000000"
 preserveAspectRatio="xMidYMid meet">

<g transform="translate(0.000000,64.000000) scale(0.100000,-0.100000)"
fill="#000000" stroke="none">
<path d="M82 557 c-21 -22 -22 -31 -22 -238 0 -283 -25 -259 261 -259 283 0
259 -25 259 261 0 283 25 259 -261 259 -212 0 -216 0 -237 -23z m206 -11 c-10
-7 -18 -19 -18 -27 0 -8 -20 -48 -45 -89 -25 -41 -45 -78 -45 -82 0 -5 25 -8
56 -8 l55 0 -22 -40 c-18 -33 -28 -40 -52 -40 -30 0 -30 0 -23 -46 3 -26 6
-55 6 -65 0 -11 5 -19 11 -19 17 0 209 111 209 120 0 5 -18 10 -40 12 l-40 3
55 70 c30 39 55 73 55 77 0 4 -25 8 -56 10 l-56 3 39 42 c22 24 45 54 51 68
10 21 18 25 56 25 69 0 71 -4 74 -240 3 -182 1 -209 -13 -224 -14 -14 -45 -16
-225 -16 -180 0 -211 2 -225 16 -14 15 -16 42 -13 224 2 157 6 211 17 223 11
14 32 17 110 17 82 -1 93 -3 79 -14z m77 -59 c-30 -41 -55 -77 -55 -80 0 -4
25 -7 55 -7 l56 0 -56 -69 c-30 -39 -55 -74 -55 -80 0 -5 12 -11 28 -13 24 -3
20 -7 -45 -45 -46 -26 -73 -37 -73 -29 0 8 -3 28 -6 45 -6 28 -4 31 17 31 19
0 32 13 57 54 17 30 32 57 32 60 0 3 -25 6 -55 8 l-54 3 57 97 57 98 48 0 47
0 -55 -73z" fill="#DA251C"/>
<path d="M120 520 c0 -11 5 -20 10 -20 6 0 10 9 10 20 0 11 -4 20 -10 20 -5 0
-10 -9 -10 -20z" fill="#DA251C"/>
<path d="M170 520 c0 -11 5 -20 10 -20 6 0 10 9 10 20 0 11 -4 20 -10 20 -5 0
-10 -9 -10 -20z" fill="#DA251C"/>
<path d="M220 520 c0 -11 5 -20 10 -20 6 0 10 9 10 20 0 11 -4 20 -10 20 -5 0
-10 -9 -10 -20z" fill="#DA251C"/>
<path d="M450 520 c0 -11 5 -20 10 -20 6 0 10 9 10 20 0 11 -4 20 -10 20 -5 0
-10 -9 -10 -20z" fill="#DA251C"/>
<path d="M500 520 c0 -11 5 -20 10 -20 6 0 10 9 10 20 0 11 -4 20 -10 20 -5 0
-10 -9 -10 -20z" fill="#DA251C"/>
</g>
</svg>
