<?xml version="1.0" encoding="iso-8859-1"?>
<!-- Generator: Adobe Illustrator 21.1.0, SVG Export Plug-In . SVG Version: 6.00 Build 0)  -->
<svg version="1.1" id="Layer_1" xmlns="http://www.w3.org/2000/svg" xmlns:xlink="http://www.w3.org/1999/xlink" x="0px" y="0px"
	 viewBox="0 0 101 101" style="enable-background:new 0 0 101 101;" xml:space="preserve">
<g>
	<path d="M45.659,93.375c-0.828,0-1.5-0.671-1.5-1.5v-7.517l-6.089-0.199C27.034,84.16,21.052,75.035,21.052,66.45l0.016-4.007
		c-2.305-0.862-5.46-2.926-6.196-3.726c-3.685-4,3.311-12.266,5.748-14.912c-0.131-1.188-0.197-2.403-0.197-3.621
		c0-18.091,14.916-32.81,33.25-32.81c18.338,0,33.257,14.718,33.257,32.81c0,9.17-3.902,17.923-10.73,24.125l-0.02,27.398
		c-0.001,0.828-0.672,1.499-1.5,1.499h-0.001c-0.828,0-1.5-0.673-1.499-1.501l0.02-28.071c0-0.434,0.188-0.846,0.515-1.13
		c6.492-5.654,10.216-13.79,10.216-22.32c0-16.437-13.573-29.81-30.257-29.81c-16.68,0-30.25,13.373-30.25,29.81
		c0,1.33,0.087,2.654,0.258,3.937c0.061,0.451-0.088,0.906-0.402,1.235c-4.005,4.193-7.536,9.877-6.198,11.329
		c1.146,1.247,4.788,2.906,5.675,3.209c0.63,0.077,1.159,0.55,1.288,1.196c0.021,0.1,0.029,0.2,0.029,0.299l-0.02,5.066
		c0,7.304,4.832,14.704,14.066,14.704l7.589,0.247c0.809,0.026,1.451,0.689,1.451,1.499v8.969
		C47.159,92.704,46.487,93.375,45.659,93.375z"/>
	<g>
		<path d="M53.836,58.791c-0.828,0-1.5-0.671-1.5-1.5v-6.753c0-3.492,1.842-6.323,5.186-7.972c2.854-1.407,4.697-4.321,4.697-7.425
			c0-4.438-3.672-8.05-8.185-8.05c-4.514,0-8.186,3.611-8.186,8.05c0,0.829-0.672,1.5-1.5,1.5s-1.5-0.671-1.5-1.5
			c0-6.093,5.018-11.05,11.186-11.05c6.167,0,11.185,4.957,11.185,11.05c0,4.237-2.501,8.208-6.371,10.115
			c-2.33,1.149-3.512,2.926-3.512,5.281v6.753C55.336,58.12,54.664,58.791,53.836,58.791z"/>
		<path d="M53.938,69.537c-0.828,0-1.5-0.671-1.5-1.5v-4.438c0-0.829,0.672-1.5,1.5-1.5s1.5,0.671,1.5,1.5v4.438
			C55.438,68.866,54.766,69.537,53.938,69.537z"/>
	</g>
</g>
</svg>
