<?xml version="1.0" standalone="no"?>
<!DOCTYPE svg PUBLIC "-//W3C//DTD SVG 20010904//EN"
 "http://www.w3.org/TR/2001/REC-SVG-20010904/DTD/svg10.dtd">
<svg version="1.0" xmlns="http://www.w3.org/2000/svg"
 width="64.000000pt" height="64.000000pt" viewBox="0 0 64.000000 64.000000"
 preserveAspectRatio="xMidYMid meet">

<g transform="translate(0.000000,64.000000) scale(0.100000,-0.100000)"
fill="#000000" stroke="none">
<path d="M223 621 c-47 -22 -70 -51 -79 -102 -4 -18 -10 -38 -14 -44 -13 -18
-10 -124 4 -137 16 -16 36 -53 36 -67 0 -5 -25 -24 -56 -42 -73 -41 -95 -77
-92 -149 l3 -55 253 -3 c245 -2 254 -2 259 17 4 16 15 21 52 23 46 3 46 3 49
42 5 60 -14 91 -84 136 l-63 42 14 28 c8 16 20 32 25 35 23 14 -4 151 -37 187
-9 10 -32 21 -52 24 -20 4 -42 16 -50 27 -14 20 -85 57 -111 57 -8 0 -34 -9
-57 -19z m67 -23 c0 -35 11 -68 20 -63 5 3 6 21 3 40 -6 39 1 43 35 19 48 -33
68 -112 32 -121 -11 -3 -17 -9 -14 -14 3 -5 16 -6 30 -3 13 3 24 2 24 -4 0
-16 -39 -22 -140 -22 -52 0 -105 3 -117 6 -35 9 -28 27 7 19 33 -7 42 9 10 18
-36 9 -16 88 32 121 35 25 40 20 33 -39 -5 -35 -4 -55 3 -55 5 0 13 27 17 60
7 57 25 85 25 38z m181 -76 c12 -11 28 -38 35 -60 12 -41 11 -42 -11 -42 -13
0 -27 -4 -30 -10 -4 -6 5 -10 20 -10 14 0 28 -6 31 -14 6 -15 -39 -94 -65
-113 -9 -6 -13 -15 -9 -19 4 -4 13 -2 21 4 10 9 27 2 72 -28 65 -43 84 -69 85
-117 0 -32 -1 -33 -40 -33 -39 0 -40 1 -34 26 4 14 3 29 -2 33 -5 3 -17 18
-26 33 -10 14 -42 40 -73 58 -30 17 -55 36 -55 41 0 14 20 51 36 67 14 14 17
119 4 137 -4 6 -10 22 -12 38 -6 33 17 37 53 9z m-67 -118 c19 -7 21 -37 4
-56 -7 -8 -23 -32 -34 -54 -12 -22 -37 -48 -58 -59 l-36 -20 -36 20 c-21 11
-46 37 -58 59 -11 22 -27 46 -33 54 -7 7 -13 22 -13 32 0 10 6 21 13 23 18 8
232 8 251 1z m-124 -204 c14 0 42 11 63 25 l37 26 0 -56 0 -55 -100 0 -100 0
0 55 0 56 37 -26 c21 -14 49 -25 63 -25z m-120 -15 c0 -38 -3 -45 -20 -45 -16
0 -20 7 -20 33 0 31 14 57 32 57 4 0 8 -20 8 -45z m268 33 c7 -7 12 -27 12
-45 0 -26 -4 -33 -20 -33 -17 0 -20 7 -20 45 0 46 7 54 28 33z m-148 -93 l175
0 5 38 5 39 24 -26 c18 -19 26 -41 29 -81 l4 -55 -242 0 -242 0 4 55 c3 40 11
62 29 81 l24 26 5 -39 5 -38 175 0z" fill="#DA251C"/>
<path d="M580 120 c0 -11 5 -20 10 -20 6 0 10 9 10 20 0 11 -4 20 -10 20 -5 0
-10 -9 -10 -20z" fill="#DA251C"/>
<path d="M70 80 c0 -11 5 -20 10 -20 6 0 10 9 10 20 0 11 -4 20 -10 20 -5 0
-10 -9 -10 -20z" fill="#DA251C"/>
<path d="M120 80 c0 -11 5 -20 10 -20 6 0 10 9 10 20 0 11 -4 20 -10 20 -5 0
-10 -9 -10 -20z" fill="#DA251C"/>
<path d="M170 80 c0 -11 5 -20 10 -20 6 0 10 9 10 20 0 11 -4 20 -10 20 -5 0
-10 -9 -10 -20z" fill="#DA251C"/>
<path d="M220 80 c0 -11 5 -20 10 -20 6 0 10 9 10 20 0 11 -4 20 -10 20 -5 0
-10 -9 -10 -20z" fill="#DA251C"/>
<path d="M270 80 c0 -11 5 -20 10 -20 6 0 10 9 10 20 0 11 -4 20 -10 20 -5 0
-10 -9 -10 -20z" fill="#DA251C"/>
<path d="M320 80 c0 -11 5 -20 10 -20 6 0 10 9 10 20 0 11 -4 20 -10 20 -5 0
-10 -9 -10 -20z" fill="#DA251C"/>
<path d="M370 80 c0 -11 5 -20 10 -20 6 0 10 9 10 20 0 11 -4 20 -10 20 -5 0
-10 -9 -10 -20z" fill="#DA251C"/>
<path d="M420 80 c0 -11 5 -20 10 -20 6 0 10 9 10 20 0 11 -4 20 -10 20 -5 0
-10 -9 -10 -20z" fill="#DA251C"/>
<path d="M470 80 c0 -11 5 -20 10 -20 6 0 10 9 10 20 0 11 -4 20 -10 20 -5 0
-10 -9 -10 -20z" fill="#DA251C"/>
</g>
</svg>
