<?xml version="1.0" standalone="no"?>
<!DOCTYPE svg PUBLIC "-//W3C//DTD SVG 20010904//EN"
 "http://www.w3.org/TR/2001/REC-SVG-20010904/DTD/svg10.dtd">
<svg version="1.0" xmlns="http://www.w3.org/2000/svg"
 width="64.000000pt" height="64.000000pt" viewBox="0 0 64.000000 64.000000"
 preserveAspectRatio="xMidYMid meet">

<g transform="translate(0.000000,64.000000) scale(0.100000,-0.100000)"
fill="#000000" stroke="none">
<path d="M263 621 c-47 -22 -70 -51 -79 -102 -4 -18 -10 -38 -14 -44 -4 -5 -8
-35 -8 -66 -1 -43 3 -62 18 -79 11 -13 20 -28 20 -34 0 -7 -34 -28 -75 -49
-91 -45 -107 -70 -103 -160 l3 -62 295 0 295 0 3 62 c4 90 -12 115 -103 160
-41 21 -75 42 -75 49 0 6 9 21 20 34 15 17 19 36 18 79 0 31 -4 61 -8 66 -4 6
-10 26 -14 45 -9 50 -32 79 -80 101 -51 23 -61 23 -113 0z m67 -23 c0 -35 11
-68 20 -63 5 3 6 21 3 40 -6 39 1 43 35 19 48 -33 68 -112 32 -121 -11 -3 -17
-9 -14 -14 3 -5 16 -6 30 -3 13 3 24 2 24 -4 0 -16 -39 -22 -140 -22 -52 0
-105 3 -117 6 -35 9 -28 27 7 19 33 -7 42 9 10 18 -36 9 -16 88 32 121 35 25
40 20 33 -39 -5 -35 -4 -55 3 -55 5 0 13 27 17 60 7 57 25 85 25 38z m114
-194 c19 -7 21 -37 4 -56 -7 -7 -22 -31 -33 -52 -51 -101 -139 -101 -190 0
-11 21 -26 45 -32 52 -7 7 -13 22 -13 32 0 10 6 21 13 23 18 8 232 8 251 1z
m-200 -262 c39 -116 32 -131 -27 -52 -38 51 -45 74 -26 86 7 4 9 22 5 48 -11
67 10 31 48 -82z m200 79 c-4 -24 -2 -41 5 -45 6 -4 11 -13 11 -20 0 -16 -78
-116 -90 -116 -8 0 50 185 65 210 12 19 15 10 9 -29z m-269 -1 c4 -13 0 -31
-10 -46 -16 -25 -15 -27 25 -80 l41 -54 -96 0 -95 0 0 56 c0 71 10 88 68 119
58 30 59 30 67 5z m145 -20 c12 0 38 9 56 21 l33 20 -18 -53 c-18 -52 -39 -65
-33 -20 3 26 -6 28 -24 5 -13 -17 -15 -17 -28 0 -18 23 -27 21 -24 -5 6 -45
-15 -32 -33 20 l-18 53 33 -20 c18 -12 44 -21 56 -21z m210 15 c60 -30 70 -48
70 -119 l0 -56 -96 0 c-105 0 -103 -3 -47 67 33 40 34 42 18 67 -10 15 -14 33
-10 46 8 25 6 25 65 -5z m-183 -94 c9 -15 10 -28 2 -50 -14 -40 -43 -41 -59
-2 -21 52 29 97 57 52z"/>
<path d="M60 80 c0 -11 5 -20 10 -20 6 0 10 9 10 20 0 11 -4 20 -10 20 -5 0
-10 -9 -10 -20z"/>
<path d="M110 80 c0 -11 5 -20 10 -20 6 0 10 9 10 20 0 11 -4 20 -10 20 -5 0
-10 -9 -10 -20z"/>
<path d="M160 80 c0 -11 5 -20 10 -20 6 0 10 9 10 20 0 11 -4 20 -10 20 -5 0
-10 -9 -10 -20z"/>
<path d="M460 80 c0 -11 5 -20 10 -20 6 0 10 9 10 20 0 11 -4 20 -10 20 -5 0
-10 -9 -10 -20z"/>
<path d="M510 80 c0 -11 5 -20 10 -20 6 0 10 9 10 20 0 11 -4 20 -10 20 -5 0
-10 -9 -10 -20z"/>
<path d="M560 80 c0 -11 5 -20 10 -20 6 0 10 9 10 20 0 11 -4 20 -10 20 -5 0
-10 -9 -10 -20z"/>
</g>
</svg>
