<?xml version="1.0" standalone="no"?>
<!DOCTYPE svg PUBLIC "-//W3C//DTD SVG 20010904//EN"
 "http://www.w3.org/TR/2001/REC-SVG-20010904/DTD/svg10.dtd">
<svg version="1.0" xmlns="http://www.w3.org/2000/svg"
 width="80.000000pt" height="80.000000pt" viewBox="0 0 80.000000 80.000000"
 preserveAspectRatio="xMidYMid meet">

<g transform="translate(0.000000,80.000000) scale(0.100000,-0.100000)"
fill="#000000" stroke="none">
<path d="M191 711 c-6 -11 -11 -26 -11 -35 0 -8 -6 -17 -12 -20 -10 -5 -10 -7
0 -12 6 -3 12 -14 12 -24 0 -10 -6 -21 -12 -24 -10 -5 -10 -7 0 -12 6 -3 12
-14 12 -24 0 -10 -6 -21 -12 -24 -10 -5 -10 -7 0 -12 6 -3 12 -14 12 -25 0
-14 -7 -19 -25 -19 -14 0 -25 -4 -25 -10 0 -5 9 -10 20 -10 13 0 20 -7 20 -20
0 -17 -7 -20 -45 -20 l-45 0 0 -130 0 -130 45 0 c43 0 45 -1 45 -30 0 -23 4
-30 20 -30 11 0 20 -7 20 -15 0 -8 5 -15 10 -15 6 0 10 7 10 15 0 8 9 15 20
15 11 0 20 -7 20 -15 0 -8 5 -15 10 -15 6 0 10 7 10 15 0 12 19 15 110 15 91
0 110 -3 110 -15 0 -8 5 -15 10 -15 6 0 10 7 10 15 0 8 9 15 20 15 11 0 20 -7
20 -15 0 -8 5 -15 10 -15 6 0 10 7 10 15 0 8 9 15 20 15 16 0 20 7 20 30 0 29
2 30 45 30 l45 0 0 130 0 130 -45 0 c-38 0 -45 3 -45 20 0 13 7 20 20 20 11 0
20 5 20 10 0 6 -11 10 -25 10 -18 0 -25 5 -25 19 0 11 6 22 13 25 10 5 10 7 0
12 -17 7 -17 41 0 48 10 5 10 7 0 12 -7 3 -13 14 -13 24 0 10 6 21 13 23 8 4
9 8 2 14 -6 4 -15 22 -20 38 -8 22 -17 30 -35 30 -18 0 -27 -8 -35 -30 -5 -16
-14 -34 -20 -38 -7 -6 -6 -10 3 -14 6 -2 12 -13 12 -23 0 -10 -6 -21 -12 -24
-10 -5 -10 -7 0 -12 16 -7 16 -41 -1 -48 -9 -5 -9 -7 1 -12 6 -3 12 -14 12
-25 0 -16 -7 -19 -50 -19 -43 0 -50 3 -50 19 0 11 6 22 13 25 10 5 10 7 0 12
-7 3 -13 14 -13 24 0 10 6 21 13 24 10 5 10 7 0 12 -7 3 -13 14 -13 24 0 10 6
21 13 23 8 4 9 8 2 14 -6 4 -15 22 -20 38 -8 22 -17 30 -35 30 -18 0 -27 -8
-35 -30 -5 -16 -14 -34 -20 -38 -7 -6 -6 -10 3 -14 6 -2 12 -13 12 -23 0 -10
-6 -21 -12 -24 -10 -5 -10 -7 0 -12 6 -3 12 -14 12 -24 0 -10 -6 -21 -12 -24
-10 -5 -10 -7 0 -12 6 -3 12 -14 12 -25 0 -16 -7 -19 -50 -19 -43 0 -50 3 -50
19 0 11 6 22 13 25 10 5 10 7 0 12 -7 3 -13 14 -13 24 0 10 6 21 13 24 10 5
10 7 0 12 -7 3 -13 14 -13 24 0 10 6 21 13 23 8 4 9 8 2 14 -6 4 -15 22 -20
38 -13 37 -49 46 -64 16z m47 -119 c3 -107 2 -112 -18 -112 -19 0 -20 6 -20
108 0 60 3 112 7 116 20 20 28 -9 31 -112z m180 0 c3 -107 2 -112 -18 -112
-19 0 -20 6 -20 108 0 60 3 112 7 116 20 20 28 -9 31 -112z m180 0 c3 -107 2
-112 -18 -112 -19 0 -20 6 -20 108 0 60 3 112 7 116 20 20 28 -9 31 -112z m12
-302 l0 -170 -210 0 -210 0 0 170 0 170 210 0 210 0 0 -170z m-440 0 l0 -110
-35 0 -35 0 0 110 0 110 35 0 35 0 0 -110z m530 0 l0 -110 -35 0 -35 0 0 110
0 110 35 0 35 0 0 -110z" fill="#DA251C"/>
<path d="M240 410 c0 -5 5 -10 10 -10 6 0 10 5 10 10 0 6 -4 10 -10 10 -5 0
-10 -4 -10 -10z" fill="#DA251C"/>
<path d="M300 410 c0 -5 5 -10 10 -10 6 0 10 5 10 10 0 6 -4 10 -10 10 -5 0
-10 -4 -10 -10z" fill="#DA251C"/>
<path d="M360 410 c0 -5 5 -10 10 -10 6 0 10 5 10 10 0 6 -4 10 -10 10 -5 0
-10 -4 -10 -10z" fill="#DA251C"/>
<path d="M420 410 c0 -5 5 -10 10 -10 6 0 10 5 10 10 0 6 -4 10 -10 10 -5 0
-10 -4 -10 -10z" fill="#DA251C"/>
<path d="M480 410 c0 -5 5 -10 10 -10 6 0 10 5 10 10 0 6 -4 10 -10 10 -5 0
-10 -4 -10 -10z" fill="#DA251C"/>
<path d="M540 410 c0 -5 5 -10 10 -10 6 0 10 5 10 10 0 6 -4 10 -10 10 -5 0
-10 -4 -10 -10z" fill="#DA251C"/>
<path d="M240 370 c0 -5 5 -10 10 -10 6 0 10 5 10 10 0 6 -4 10 -10 10 -5 0
-10 -4 -10 -10z" fill="#DA251C"/>
<path d="M300 370 c0 -5 5 -10 10 -10 6 0 10 5 10 10 0 6 -4 10 -10 10 -5 0
-10 -4 -10 -10z" fill="#DA251C"/>
<path d="M360 370 c0 -5 5 -10 10 -10 6 0 10 5 10 10 0 6 -4 10 -10 10 -5 0
-10 -4 -10 -10z" fill="#DA251C"/>
<path d="M420 370 c0 -5 5 -10 10 -10 6 0 10 5 10 10 0 6 -4 10 -10 10 -5 0
-10 -4 -10 -10z" fill="#DA251C"/>
<path d="M480 370 c0 -5 5 -10 10 -10 6 0 10 5 10 10 0 6 -4 10 -10 10 -5 0
-10 -4 -10 -10z" fill="#DA251C"/>
<path d="M540 370 c0 -5 5 -10 10 -10 6 0 10 5 10 10 0 6 -4 10 -10 10 -5 0
-10 -4 -10 -10z" fill="#DA251C"/>
<path d="M240 330 c0 -5 5 -10 10 -10 6 0 10 5 10 10 0 6 -4 10 -10 10 -5 0
-10 -4 -10 -10z" fill="#DA251C"/>
<path d="M300 330 c0 -5 5 -10 10 -10 6 0 10 5 10 10 0 6 -4 10 -10 10 -5 0
-10 -4 -10 -10z" fill="#DA251C"/>
<path d="M360 330 c0 -5 5 -10 10 -10 6 0 10 5 10 10 0 6 -4 10 -10 10 -5 0
-10 -4 -10 -10z" fill="#DA251C"/>
<path d="M420 330 c0 -5 5 -10 10 -10 6 0 10 5 10 10 0 6 -4 10 -10 10 -5 0
-10 -4 -10 -10z" fill="#DA251C"/>
<path d="M480 330 c0 -5 5 -10 10 -10 6 0 10 5 10 10 0 6 -4 10 -10 10 -5 0
-10 -4 -10 -10z" fill="#DA251C"/>
<path d="M540 330 c0 -5 5 -10 10 -10 6 0 10 5 10 10 0 6 -4 10 -10 10 -5 0
-10 -4 -10 -10z" fill="#DA251C"/>
<path d="M240 290 c0 -5 5 -10 10 -10 6 0 10 5 10 10 0 6 -4 10 -10 10 -5 0
-10 -4 -10 -10z" fill="#DA251C"/>
<path d="M300 290 c0 -5 5 -10 10 -10 6 0 10 5 10 10 0 6 -4 10 -10 10 -5 0
-10 -4 -10 -10z" fill="#DA251C"/>
<path d="M360 290 c0 -5 5 -10 10 -10 6 0 10 5 10 10 0 6 -4 10 -10 10 -5 0
-10 -4 -10 -10z" fill="#DA251C"/>
<path d="M420 290 c0 -5 5 -10 10 -10 6 0 10 5 10 10 0 6 -4 10 -10 10 -5 0
-10 -4 -10 -10z" fill="#DA251C"/>
<path d="M480 290 c0 -5 5 -10 10 -10 6 0 10 5 10 10 0 6 -4 10 -10 10 -5 0
-10 -4 -10 -10z" fill="#DA251C"/>
<path d="M540 290 c0 -5 5 -10 10 -10 6 0 10 5 10 10 0 6 -4 10 -10 10 -5 0
-10 -4 -10 -10z" fill="#DA251C"/>
<path d="M240 250 c0 -5 5 -10 10 -10 6 0 10 5 10 10 0 6 -4 10 -10 10 -5 0
-10 -4 -10 -10z" fill="#DA251C"/>
<path d="M300 250 c0 -5 5 -10 10 -10 6 0 10 5 10 10 0 6 -4 10 -10 10 -5 0
-10 -4 -10 -10z" fill="#DA251C"/>
<path d="M360 250 c0 -5 5 -10 10 -10 6 0 10 5 10 10 0 6 -4 10 -10 10 -5 0
-10 -4 -10 -10z" fill="#DA251C"/>
<path d="M420 250 c0 -5 5 -10 10 -10 6 0 10 5 10 10 0 6 -4 10 -10 10 -5 0
-10 -4 -10 -10z" fill="#DA251C"/>
<path d="M480 250 c0 -5 5 -10 10 -10 6 0 10 5 10 10 0 6 -4 10 -10 10 -5 0
-10 -4 -10 -10z" fill="#DA251C"/>
<path d="M540 250 c0 -5 5 -10 10 -10 6 0 10 5 10 10 0 6 -4 10 -10 10 -5 0
-10 -4 -10 -10z" fill="#DA251C"/>
<path d="M240 210 c0 -5 5 -10 10 -10 6 0 10 5 10 10 0 6 -4 10 -10 10 -5 0
-10 -4 -10 -10z" fill="#DA251C"/>
<path d="M300 210 c0 -5 5 -10 10 -10 6 0 10 5 10 10 0 6 -4 10 -10 10 -5 0
-10 -4 -10 -10z" fill="#DA251C"/>
<path d="M360 210 c0 -5 5 -10 10 -10 6 0 10 5 10 10 0 6 -4 10 -10 10 -5 0
-10 -4 -10 -10z" fill="#DA251C"/>
<path d="M420 210 c0 -5 5 -10 10 -10 6 0 10 5 10 10 0 6 -4 10 -10 10 -5 0
-10 -4 -10 -10z" fill="#DA251C"/>
<path d="M480 210 c0 -5 5 -10 10 -10 6 0 10 5 10 10 0 6 -4 10 -10 10 -5 0
-10 -4 -10 -10z" fill="#DA251C"/>
<path d="M540 210 c0 -5 5 -10 10 -10 6 0 10 5 10 10 0 6 -4 10 -10 10 -5 0
-10 -4 -10 -10z" fill="#DA251C"/>
<path d="M240 170 c0 -5 5 -10 10 -10 6 0 10 5 10 10 0 6 -4 10 -10 10 -5 0
-10 -4 -10 -10z" fill="#DA251C"/>
<path d="M300 170 c0 -5 5 -10 10 -10 6 0 10 5 10 10 0 6 -4 10 -10 10 -5 0
-10 -4 -10 -10z" fill="#DA251C"/>
<path d="M360 170 c0 -5 5 -10 10 -10 6 0 10 5 10 10 0 6 -4 10 -10 10 -5 0
-10 -4 -10 -10z" fill="#DA251C"/>
<path d="M420 170 c0 -5 5 -10 10 -10 6 0 10 5 10 10 0 6 -4 10 -10 10 -5 0
-10 -4 -10 -10z" fill="#DA251C"/>
<path d="M480 170 c0 -5 5 -10 10 -10 6 0 10 5 10 10 0 6 -4 10 -10 10 -5 0
-10 -4 -10 -10z" fill="#DA251C"/>
<path d="M540 170 c0 -5 5 -10 10 -10 6 0 10 5 10 10 0 6 -4 10 -10 10 -5 0
-10 -4 -10 -10z" fill="#DA251C"/>
</g>
</svg>
